<svg xmlns="http://www.w3.org/2000/svg" viewBox="0 0 229.46 249.49"><defs><style>.cls-1{fill:#2b90b7;}.cls-2{opacity:0.31;}.cls-3,.cls-4{fill:#fff;}.cls-4{fill-opacity:0.71;}.cls-5{fill:#d8ddbc;}.cls-6{fill:#afb39d;}.cls-7{fill:#685d53;}.cls-8{fill:#918881;}.cls-9{fill:#8aa45c;}</style></defs><g id="Layer_4" data-name="Layer 4"><path class="cls-1" d="M207.65,124.79a90.91,90.91,0,1,1-90.9-90.9A90.91,90.91,0,0,1,207.65,124.79Z"/><g class="cls-2"><path class="cls-3" d="M86.68,141l-2.82-5.59-5.29-1.2-2.82-7.58-7.06.8-6-4.39-6.35,5.58v.89c-1.92-.56-4.28-.63-6-1.69l-1.41-4V119.4l-4.23.4,1.06-8.38H43.3l-2.47,3.19-2.47,1.19-3.53-2-.35-4.39.71-4.79,5.29-4h4.23l.7-2.39,5.29,1.19,3.88,4.79.71-8L62,90.66l2.47-6,4.94-2,2.82-4,6.35-1.21,3.17-4.78H72.22l6-2.8h4.22l6-2,.71-2.39-2.12-2-2.47-.8.71-2.39-1.76-3.59-4.24,1.59L80,55.13,75,52.33l-3.88,6.79.35,2.39-3.87,1.61L65.16,68.3l-1-4.79-6.7-2.79-1.06-3.59,8.81-5.2L69,48.34,69.4,44l-2.12-1.2-2.82-.4-1.76,4.4s-3,.57-3.71.76c-9.68,8.93-29.25,28.19-33.8,64.56a54.94,54.94,0,0,0,3.3,5.73l7.4,4.39,7.41,2,3.18,4,4.93,3.6,2.82-.4,2.12,1V133l-2.82,7.58-2.12,3.19.71,1.6-1.77,6,6.35,11.58,6.35,5.59,2.82,4-.35,8.39,2.12,4.79-2.12,9.18s-.17-.06.1.86,11.3,7,12,6.52l1.3-1-.7-2L81,196.45l1-2.8,4.59-1.6,3.53-8.78-1.06-2.39,2.46-3.59,5.3-1.2,2.82-6.39-.71-8,4.23-6,.71-6c-5.79-2.87-11.53-5.83-17.28-8.78"/><path class="cls-3" d="M203.59,109.87h0l-2.65,3a56.45,56.45,0,0,0-5.29-5.2l-4.05.6-3.71-4.19v5.19l3.18,2.4,2.11,2.39,2.83-3.19q1.06,2,2.11,4v4l-3.18,3.59-5.81,4-4.41,4.39-2.83-3.2,1.42-3.59-2.82-3.19-4.76-10.18-4.06-4.59-1.06,1.2,1.59,5.79,3,3.39a140,140,0,0,0,5.65,14.37,79.67,79.67,0,0,0,10.23-.8v2.79l-4.23,10.38L183,147.59l-3.18,6.8v11.17l1.06,4.4-1.76,2-3.89,2.39-4.05,3.4,3.35,3.79-4.58,4,.88,2.58-6.88,7.79h-4.58l-3.88,2.4H153v-3.19l-1.05-6.4c-1.36-4-2.79-8-4.23-12,0-2.94.17-5.85.35-8.78l1.77-4-2.48-4.8.18-6.58-3.35-3.8,1.68-5.48-2.73-3.1h-4.77l-1.59-1.79-4.76,3-1.94-2.2L125.64,143l-9-10.18-3.52-8.38,3.17-4.79-1.76-2,3.87-9.19c3.19-4,6.51-7.76,9.88-11.57l6-1.6,6.7-.8,4.58,1.2,6.53,6.58,2.29-2.59,3.17-.4,6,2h4.58l3.18-2.8,1.41-2-3.18-2-5.29-.39a52.4,52.4,0,0,0-4.58-6l-1.77.79-.7,5.2L154,90.51l-.7-4-3.52-2.78h-1.42l3.53,4-1.41,3.59-2.82.8,1.76-3.6-3.18-1.59-2.81-3.19-5.3,1.19-.7,1.6-3.18,2-1.76,4.4-4.4,2.19-2-2.19h-2.11V85.72l4.59-2.4h3.52l-.71-2.79-2.81-2.79,4.75-1,2.65-3,2.11-3.6h3.89L141,67.36l2.48-1.6V69l5.29,1.19L154,65.76l.36-2L159,60.57a35.8,35.8,0,0,0-4.94.8v-3.6l1.77-4H154l-3.87,3.59-1.06,2,1.06,2.8L148.39,67l-2.82-1.59-2.46-2.79-3.89,2.79L137.81,59l6.7-4.39V52.19l4.24-2.8,6.7-1.6,4.58,1.6,8.46,1.6-2.11,2.39H161.8l4.58,4.79,3.53-4L171,52.43s13.52,12.12,21.25,25.38S203.59,106.7,203.59,109.87Z"/><path class="cls-4" d="M125,33.12l-9.17-3.6-10.58,1.2-13,3.59-2.47,2.4,8.11,5.58v3.2l-3.17,3.19,4.23,8.39,2.82-1.6,3.53-5.59a120.12,120.12,0,0,0,15.52-6L125,33.12"/><path class="cls-3" d="M66.8,47.89,65,52.28h3.53l1.76-4,4.59-3.19,3.53,1.2,7,4.79L89,47.89l-3.88-1.6L83.37,42.7l-6.7-.8-.35-2-3.18.8-1.41,2.79L70,39.9l-.7,1.6.35,4-2.82,2.4"/><path class="cls-3" d="M76,51.08l3.52,2.39h2.82V50.68l-3.52-1.6-2.82,2"/><path class="cls-4" d="M85.49,75.83l2.12-3.19-3.18-2.4,1.06,5.59"/></g><path class="cls-5" d="M194,179.84a99,99,0,0,1-9.44,10.41l-2,2c-.85.87-1.06,1.08-.85,2.32a30.32,30.32,0,0,1,0,6.53,13,13,0,0,1-1.65,6.48,2.36,2.36,0,0,1-1.44,1.24,36.83,36.83,0,0,0,10,1.84c5.45.11,11.18-1.49,14.92-5.46s5-9.65,5.18-15.09c.24-7.35-1.25-14.63-3.28-21.65-.26-.89-.52-1.77-.79-2.65a10.91,10.91,0,0,0-.83-2.63c-.51-.73-.87.72-1.06,1.15-.34.75-.69,1.5-1.05,2.24A63.52,63.52,0,0,1,194,179.84Z"/><path class="cls-6" d="M93.85,34a41.82,41.82,0,0,0-11.19,2.68,64.17,64.17,0,0,0-6.18,2.88c-1,.54-2.07,1.09-3.1,1.66-.34.19-2.71,1.22-2.74,1.54a18.44,18.44,0,0,1,1.3-4.92c3.13-8.13,9-15.83,17.31-18.39a20.51,20.51,0,0,1,6.34-1.29,12.08,12.08,0,0,1,3.22.5,10.44,10.44,0,0,1,1.75.64c.53.27,4,1,4.57,1.12-1-.3-4.49.22-5.25.89a8.15,8.15,0,0,0-2.2,2.34,24.57,24.57,0,0,0-2.17,10.2C95,33.9,94.4,34,93.85,34Z"/><path class="cls-7" d="M113.27,32.91c-1.76-3.76-5.2-6.32-8.67-8.78a12.18,12.18,0,0,0-3.29-1.86,14.8,14.8,0,0,0-10-.37,29.45,29.45,0,0,0-9.09,4.7,42.64,42.64,0,0,0-5.71,5.92c-3,3.79-6.92,11.57-6.7,12.85,0-3.16,2.64-9.22,4.76-13.27,5.32-10.21,14-12.7,23.83-15a29,29,0,0,1,6.67-.84c4,0,7.52,1.52,11.39,2.08a35.7,35.7,0,0,1,9.49,3.07q5.38,2.37,10.54,5.21c1.71.95,3.41,1.93,5.08,2.95.82.5,3.88,3.15,4.72,3q-8.21,1.24-16.42,2.38l-8.41,1.13c-1.41.18-2.81.35-4.21.55-.62.08-2.31.92-2.76.81A13.11,13.11,0,0,0,113.27,32.91Z"/><polygon class="cls-8" points="195.33 63.37 212.32 24.13 212.32 51.81 197.09 87.29 195.33 63.37"/><polygon class="cls-7" points="109.38 37.68 195.33 63.37 197.09 87.29 111.24 62.05 109.38 37.68"/><polygon class="cls-9" points="109.38 37.68 212.32 24.13 195.33 63.37 109.38 37.68"/><path class="cls-9" d="M185.61,27.88c-6.82.62-13.83-3.62-20.05-6.3-5.18-2.23-10-5.17-15.09-7.62a50.59,50.59,0,0,0-7.68-3.11,22.23,22.23,0,0,0-8.17-.38,140.51,140.51,0,0,0-21,3.36c-3.33.79-6.65,1.71-10,2.33-1.65.3-5.72.94-7.68,1.53,2.17-.07,4-.38,5.87-.53a42.13,42.13,0,0,1,6,0c11.64.77,22.57,5.92,32.48,11.76,1.48.88,5,5,6.73,5.32,1.35.27,5-.45,6.35-.58C163.19,32.72,175.82,28.77,185.61,27.88Z"/><path class="cls-9" d="M25,74.47c.11.26.23.52.35.79,1.26,2.78,3.11,4.92,4.2,7.78a93.57,93.57,0,0,0,9,18.07q4.48,6.94,9,13.9c1.37,2.11,2.59,4.63,4.24,6.52s3.46,3.15,4.89,5.09c2.68,3.65,4.65,8.1,7.12,11.94,12.87,20.17,28.86,38.88,49.32,51.29,27.2,16.49,59.89,20.59,91.48,24.33-8.79,8-32.18,22.85-32.18,22.85-10.84,1.69-22.42-5.07-32.73-9.36-33-13.77-61-47.15-66.76-55.5-3.46-5-8.67-9.26-11.8-14.45-2.59-4.29-13.05-20.83-21.29-36.37C31,104.9,23.49,87.51,19.81,69.17a71.65,71.65,0,0,1,8.71-51.84c-.08,1.63-1.19,3-2.09,4.37C23.57,26,23.35,31.16,22,36a58.93,58.93,0,0,0-1.52,19.89A59.47,59.47,0,0,0,25,74.47Z"/><path class="cls-7" d="M210.13,190.4a87.67,87.67,0,0,0-6.44-28.65c.81,8.65,1.36,11.78,1.78,17.78.76,10.93.82,21.94-7.67,27.4-6.25,4-14.38,3.11-21.64,1.55-31-6.67-59.71-22.83-83-44.41-5.29-4.89-10.38-8.56-15.72-13.38-5.79-5.25-11-12.28-16.28-18.05-2.07-2.27-4.1-4.59-5.94-7s-3.65-5.33-5.36-8.07l-6.48-10.35c-2.3-3.67-4.59-7.34-6.56-11.19-2.12-4.17-5.21-7.6-6.94-12-2.21-5.61-5.42-12.1-7.64-17.7,1.38,12.6,9.05,24.4,15.23,35.47,4.65,8.34,9.83,16.38,15,24.42l9.13,14.19A68.1,68.1,0,0,0,68.27,149c2.63,2.84,4.4,4.46,6.87,7.46a176,176,0,0,0,15.78,16.76L92.78,175c25.91,23.43,57,40.64,91.73,44.64,5.5.64,13.53-.86,18.13-3.94,5.92-3.95,7.45-11.94,7.59-19Q210.29,193.51,210.13,190.4Z"/></g></svg>